<svg xmlns="http://www.w3.org/2000/svg" width="1076" height="924" viewBox="0 0 1076 924">
<g>
<path d="M 450.10 687.99 C445.43,689.29 399.32,689.33 398.52,688.04 C398.20,687.51 397.92,625.11 397.92,549.37 C397.91,437.77 398.16,411.52 399.21,410.85 C400.75,409.87 447.30,409.71 452.10,410.67 C458.22,411.89 475.31,431.51 499.00,464.52 C502.02,468.73 506.52,474.80 509.00,478.00 C511.48,481.21 516.42,487.80 519.98,492.66 C523.55,497.52 529.51,505.43 533.23,510.24 C536.95,515.04 540.00,519.68 540.00,520.54 C540.00,521.96 533.26,531.65 520.30,548.87 C517.66,552.37 514.85,556.20 514.07,557.37 C511.55,561.11 506.65,566.00 505.42,566.00 C504.46,566.00 500.93,562.18 495.75,555.50 C493.36,552.42 478.97,533.25 476.00,529.19 C467.19,517.14 458.78,507.00 457.60,507.00 C455.76,507.00 455.01,535.34 455.00,605.09 C455.00,636.77 454.71,668.15 454.35,674.84 L 453.69 686.99 ZM 552.92 616.28 C548.75,618.65 539.98,620.51 537.50,619.55 C536.95,619.34 534.84,618.89 532.82,618.55 C530.78,618.21 526.52,616.00 523.32,613.63 C513.09,606.06 509.13,594.26 513.86,585.50 C516.82,580.02 525.13,568.32 535.13,555.53 C539.74,549.65 544.20,543.78 545.05,542.48 C546.77,539.87 552.38,532.93 564.66,518.25 C574.35,506.66 581.71,497.46 590.23,486.27 C596.81,477.64 629.53,436.50 641.50,421.82 C645.35,417.09 649.40,412.61 650.50,411.86 C652.05,410.81 659.19,410.43 682.17,410.17 C710.52,409.86 711.89,409.93 712.87,411.75 C713.69,413.29 713.04,414.94 709.48,420.37 C707.06,424.05 704.49,428.15 703.79,429.47 C703.08,430.79 697.78,438.01 692.00,445.51 C686.22,453.00 680.83,460.14 680.00,461.36 C679.17,462.58 676.97,465.24 675.11,467.27 C673.24,469.30 670.31,472.95 668.61,475.37 C666.90,477.79 654.70,493.15 641.50,509.50 C628.30,525.84 615.58,541.76 613.22,544.86 C610.87,547.96 608.39,551.17 607.71,552.00 C607.02,552.83 605.12,555.30 603.48,557.50 C601.84,559.70 597.92,564.88 594.76,569.00 C591.60,573.12 587.55,578.48 585.76,580.89 C580.16,588.44 563.41,608.38 560.39,611.09 C558.80,612.51 555.44,614.85 552.92,616.28 ZM 704.78 687.16 C703.25,688.13 650.63,688.30 649.67,687.33 C648.67,686.34 648.91,556.10 649.91,551.78 C651.25,546.02 657.56,536.88 686.36,499.00 C697.54,484.30 703.02,478.00 704.62,478.00 C705.78,478.00 706.01,487.36 706.03,535.75 L 706.03 538.45 C706.11,683.59 706.11,686.27 704.88,687.09 C704.85,687.12 704.81,687.14 704.78,687.16 ZM 482.26 381.14 C475.13,383.60 470.07,384.01 464.38,382.61 C448.71,378.74 438.59,365.25 439.38,349.28 C439.79,341.11 444.76,330.92 450.32,326.86 C458.65,320.79 461.13,320.00 471.81,320.00 C481.59,320.00 481.75,320.04 487.59,323.86 C495.15,328.80 497.32,331.22 500.40,338.18 C502.52,342.96 502.87,345.14 502.68,352.17 C502.47,359.55 502.06,361.19 499.07,366.52 C495.16,373.48 489.04,378.80 482.26,381.14 ZM 645.76 384.33 C638.81,387.62 627.95,387.95 621.48,385.07 C614.66,382.03 606.39,373.65 604.05,367.41 C598.28,351.98 604.83,334.08 618.70,327.40 C623.70,324.98 625.74,324.59 633.50,324.56 C641.35,324.52 643.14,324.86 647.55,327.17 C654.23,330.69 658.68,335.29 661.88,342.00 C665.43,349.46 665.51,362.21 662.03,368.78 C658.72,375.05 652.18,381.30 645.76,384.33 Z" fill="rgb(104,224,124)"/>
<path d="M 706.73 687.61 C705.70,688.63 649.71,689.44 648.75,688.44 C647.50,687.14 647.85,555.09 649.12,550.52 C649.72,548.33 651.41,544.72 652.86,542.50 C654.31,540.28 655.95,537.74 656.50,536.86 C657.05,535.97 660.99,530.71 665.25,525.17 C669.51,519.63 673.00,514.68 673.00,514.17 C673.00,513.66 673.75,512.63 674.66,511.87 C675.57,511.12 680.38,505.10 685.35,498.50 C690.32,491.90 694.90,486.05 695.51,485.50 C696.13,484.95 698.59,482.10 700.98,479.17 C704.29,475.11 705.52,474.18 706.13,475.27 C707.17,477.12 707.75,686.58 706.73,687.61 ZM 704.78 687.16 C704.81,687.14 704.85,687.12 704.88,687.09 C706.11,686.27 706.11,683.59 706.03,538.46 L 706.03 538.45 L 706.03 535.75 C706.01,487.36 705.78,478.00 704.62,478.00 C703.02,478.00 697.54,484.30 686.36,499.00 C657.56,536.88 651.25,546.02 649.91,551.78 C648.91,556.10 648.67,686.34 649.67,687.33 C650.63,688.30 703.25,688.13 704.78,687.16 ZM 450.10 687.99 L 453.69 686.99 L 454.35 674.84 C454.71,668.15 455.00,636.77 455.00,605.09 C455.01,535.34 455.76,507.00 457.60,507.00 C458.78,507.00 467.19,517.14 476.00,529.19 C477.06,530.63 479.55,533.97 482.43,537.82 C478.28,532.55 474.09,527.40 472.33,525.50 C471.31,524.40 468.93,521.47 467.03,519.00 C462.28,512.82 458.89,509.70 457.98,510.68 C456.75,512.00 456.02,552.69 455.97,622.21 C455.94,671.80 455.64,687.11 454.71,687.71 C454.25,688.01 450.89,688.26 446.02,688.46 C448.01,688.32 449.45,688.17 450.10,687.99 ZM 707.93 410.17 C712.94,410.24 716.00,410.38 716.00,410.55 C716.00,412.81 710.47,421.13 697.70,437.99 C700.92,433.69 703.33,430.33 703.79,429.47 C704.49,428.15 707.06,424.05 709.48,420.37 C713.04,414.94 713.69,413.29 712.87,411.75 C712.39,410.85 711.81,410.38 707.93,410.17 ZM 493.20 552.14 C494.38,553.71 495.29,554.90 495.75,555.50 C496.25,556.14 496.73,556.75 497.19,557.33 C496.58,556.61 496.16,556.12 496.03,556.00 C495.80,555.78 494.62,554.17 493.20,552.14 ZM 404.07 688.67 C400.80,688.55 398.73,688.37 398.58,688.13 C398.58,688.12 398.57,688.11 398.57,688.08 C398.92,688.33 400.97,688.52 404.07,688.67 ZM 500.50 561.37 C501.92,563.03 503.08,564.27 503.94,565.05 C502.98,564.20 501.72,562.87 500.50,561.37 Z" fill="rgb(133,227,152)"/>
<path d="M 0.00 462.00 L 0.00 0.00 L 538.00 0.00 L 1076.00 0.00 L 1076.00 462.00 L 1076.00 924.00 L 538.00 924.00 L 0.00 924.00 L 0.00 462.00 ZM 454.71 687.71 C455.64,687.11 455.94,671.80 455.97,622.21 C456.02,552.69 456.75,512.00 457.98,510.68 C458.89,509.70 462.28,512.82 467.03,519.00 C468.93,521.47 471.31,524.40 472.33,525.50 C475.77,529.22 488.59,545.47 492.06,550.50 C493.95,553.25 495.74,555.72 496.03,556.00 C496.33,556.28 498.29,558.64 500.40,561.25 C502.51,563.86 504.77,566.00 505.42,566.00 C506.65,566.00 511.55,561.11 514.07,557.37 C514.85,556.20 517.66,552.37 520.30,548.87 C533.26,531.65 540.00,521.96 540.00,520.54 C540.00,519.68 536.95,515.04 533.23,510.24 C529.51,505.43 523.55,497.52 519.98,492.66 C516.42,487.80 511.48,481.21 509.00,478.00 C506.52,474.80 502.02,468.73 499.00,464.52 C475.31,431.51 458.22,411.89 452.10,410.67 C447.30,409.71 400.75,409.87 399.21,410.85 C398.16,411.52 397.91,437.77 397.92,549.37 C397.92,625.11 398.22,687.55 398.58,688.13 C399.35,689.37 452.77,688.97 454.71,687.71 ZM 706.73 687.61 C707.75,686.58 707.17,477.12 706.13,475.27 C705.52,474.18 704.29,475.11 700.98,479.17 C698.59,482.10 696.13,484.95 695.51,485.50 C694.90,486.05 690.32,491.90 685.35,498.50 C680.38,505.10 675.57,511.12 674.66,511.87 C673.75,512.63 673.00,513.66 673.00,514.17 C673.00,514.68 669.51,519.63 665.25,525.17 C660.99,530.71 657.05,535.97 656.50,536.86 C655.95,537.74 654.31,540.28 652.86,542.50 C651.41,544.72 649.72,548.33 649.12,550.52 C647.85,555.09 647.50,687.14 648.75,688.44 C649.71,689.44 705.70,688.63 706.73,687.61 ZM 552.92 616.28 C555.44,614.85 558.80,612.51 560.39,611.09 C563.41,608.38 580.16,588.44 585.76,580.89 C587.55,578.48 591.60,573.12 594.76,569.00 C597.92,564.88 601.84,559.70 603.48,557.50 C605.12,555.30 607.02,552.83 607.71,552.00 C608.39,551.17 610.87,547.96 613.22,544.86 C615.58,541.76 628.30,525.84 641.50,509.50 C654.70,493.15 666.90,477.79 668.61,475.37 C670.31,472.95 673.24,469.30 675.11,467.27 C676.97,465.24 679.17,462.58 680.00,461.36 C680.83,460.14 686.22,452.99 692.00,445.47 C708.84,423.54 716.00,413.13 716.00,410.55 C716.00,410.17 701.71,410.00 684.25,410.18 C659.51,410.43 652.06,410.80 650.50,411.86 C649.40,412.61 645.35,417.09 641.50,421.82 C629.53,436.50 596.81,477.64 590.23,486.27 C581.71,497.46 574.35,506.66 564.66,518.25 C552.38,532.93 546.77,539.87 545.05,542.48 C544.20,543.78 539.74,549.65 535.13,555.53 C525.13,568.32 516.82,580.02 513.86,585.50 C509.13,594.26 513.09,606.06 523.32,613.63 C526.52,616.00 530.78,618.21 532.82,618.55 C534.84,618.89 536.95,619.34 537.50,619.55 C539.98,620.51 548.75,618.65 552.92,616.28 ZM 645.76 384.33 C652.18,381.30 658.72,375.05 662.03,368.78 C665.51,362.21 665.43,349.46 661.88,342.00 C658.68,335.29 654.23,330.69 647.55,327.17 C643.14,324.86 641.35,324.52 633.50,324.56 C625.74,324.59 623.70,324.98 618.70,327.40 C604.83,334.08 598.28,351.98 604.05,367.41 C606.39,373.65 614.66,382.03 621.48,385.07 C627.95,387.95 638.81,387.62 645.76,384.33 ZM 482.26 381.14 C489.04,378.80 495.16,373.48 499.07,366.52 C502.06,361.19 502.47,359.55 502.68,352.17 C502.87,345.14 502.52,342.96 500.40,338.18 C497.32,331.22 495.15,328.80 487.59,323.86 C481.75,320.04 481.59,320.00 471.81,320.00 C461.13,320.00 458.65,320.79 450.32,326.86 C444.76,330.92 439.79,341.11 439.38,349.28 C438.59,365.25 448.71,378.74 464.38,382.61 C470.07,384.01 475.13,383.60 482.26,381.14 Z" fill="rgb(241,242,241)"/>
</g>
</svg>